<svg width="109" height="109" viewBox="0 0 109 109" fill="none" xmlns="http://www.w3.org/2000/svg">
<g clip-path="url(#clip0_1_747)">
<path d="M54.5 109C84.5995 109 109 84.5995 109 54.5C109 24.4005 84.5995 0 54.5 0C24.4005 0 0 24.4005 0 54.5C0 84.5995 24.4005 109 54.5 109Z" fill="#013A4C"/>
<path d="M26.0822 30.8314H82.9179" stroke="white" stroke-width="3.4" stroke-linecap="square"/>
<path d="M35.5807 78.1686C37.0744 78.1686 38.5345 77.7256 39.7765 76.8958C41.0184 76.066 41.9864 74.8865 42.558 73.5065C43.1296 72.1265 43.2791 70.608 42.9877 69.1431C42.6963 67.6781 41.9771 66.3324 40.9209 65.2762C39.8647 64.2201 38.519 63.5008 37.0541 63.2094C35.5891 62.918 34.0706 63.0675 32.6906 63.6391C31.3107 64.2107 30.1312 65.1787 29.3013 66.4207C28.4715 67.6626 28.0286 69.1227 28.0286 70.6164C28.0286 71.6082 28.2239 72.5902 28.6034 73.5065C28.983 74.4228 29.5393 75.2553 30.2405 75.9566C30.9418 76.6579 31.7744 77.2141 32.6906 77.5937C33.6069 77.9732 34.5889 78.1686 35.5807 78.1686V78.1686Z" stroke="white" stroke-width="3.4" stroke-linecap="square"/>
<path d="M35.5807 63.0643V30.7535" stroke="white" stroke-width="3.4"/>
<path d="M50.7629 78.1685C52.2531 78.1532 53.7055 77.6972 54.9372 76.8581C56.1688 76.019 57.1247 74.8342 57.6844 73.4529C58.2441 72.0717 58.3826 70.5557 58.0824 69.0959C57.7823 67.6361 57.0569 66.2977 55.9977 65.2493C54.9385 64.2009 53.5928 63.4893 52.13 63.2042C50.6672 62.919 49.1527 63.073 47.7772 63.6469C46.4018 64.2207 45.2269 65.1886 44.4004 66.4288C43.574 67.669 43.133 69.126 43.1329 70.6164C43.1328 71.6147 43.3307 72.6032 43.7151 73.5246C44.0995 74.4459 44.6628 75.282 45.3723 75.9843C46.0818 76.6866 46.9236 77.2412 47.8489 77.6162C48.7741 77.9911 49.7646 78.1788 50.7629 78.1685V78.1685Z" stroke="white" stroke-width="3.4" stroke-linecap="square"/>
<path d="M50.7629 63.0643V30.7535" stroke="white" stroke-width="3.4"/>
<path d="M81.75 60.9621C82.5133 62.2415 82.8811 63.7181 82.8072 65.2061C82.7333 66.694 82.2209 68.1269 81.3346 69.3244C80.4483 70.5218 79.2276 71.4304 77.8261 71.9357C76.4247 72.4411 74.905 72.5207 73.4585 72.1644C72.0119 71.8082 70.703 71.032 69.6965 69.9337C68.69 68.8353 68.0308 67.4638 67.8019 65.9917C67.573 64.5196 67.7846 63.0126 68.4101 61.6605C69.0356 60.3084 70.0471 59.1715 71.3172 58.3928C72.1646 57.8671 73.1077 57.5144 74.0921 57.3551C75.0766 57.1958 76.0828 57.233 77.0527 57.4647C78.0227 57.6963 78.9372 58.1177 79.7434 58.7047C80.5496 59.2916 81.2316 60.0324 81.75 60.8843V60.9621Z" stroke="white" stroke-width="3.4" stroke-linecap="square"/>
<path d="M72.5628 57.8479L61.8964 30.8314" stroke="white" stroke-width="3.4"/>
</g>
<defs>
<clipPath id="clip0_1_747">
<rect width="109" height="109" fill="white"/>
</clipPath>
</defs>
</svg>
