<svg width="109" height="109" viewBox="0 0 109 109" fill="none" xmlns="http://www.w3.org/2000/svg">
<g clip-path="url(#clip0_1_790)">
<path d="M54.5 109C84.5995 109 109 84.5995 109 54.5C109 24.4005 84.5995 0 54.5 0C24.4005 0 0 24.4005 0 54.5C0 84.5995 24.4005 109 54.5 109Z" fill="#013A4C"/>
<path d="M49.8286 55.2786L24.8364 80.3486" stroke="white" stroke-width="3.4"/>
<path d="M39.3957 26.0043H31.7657" stroke="white" stroke-width="3.4" stroke-linecap="square"/>
<path d="M35.5807 22.1893V29.8193" stroke="white" stroke-width="3.4" stroke-linecap="square"/>
<path d="M79.1029 71.395H71.5507" stroke="white" stroke-width="3.4" stroke-linecap="square"/>
<path d="M75.2878 67.658V75.2101" stroke="white" stroke-width="3.4" stroke-linecap="square"/>
<path d="M62.0521 27.8729V22.1893" stroke="white" stroke-width="3.4" stroke-linecap="square"/>
<path d="M82.9178 44.9236H77.2343" stroke="white" stroke-width="3.4" stroke-linecap="square"/>
<path d="M50.3736 54.7336L38.9286 52.0865L48.9722 46.0136L47.96 34.2572L56.8357 41.9651L67.7357 37.4493L63.1422 48.2715L70.85 57.1472L59.0936 56.1351L53.0207 66.1786L50.3736 54.7336V54.7336Z" stroke="white" stroke-width="3.4" stroke-linecap="square"/>
</g>
<defs>
<clipPath id="clip0_1_790">
<rect width="109" height="109" fill="white"/>
</clipPath>
</defs>
</svg>
